<?xml version="1.0" encoding="utf-8"?>
<!-- Generator: Adobe Illustrator 15.0.0, SVG Export Plug-In . SVG Version: 6.00 Build 0)  -->
<!DOCTYPE svg PUBLIC "-//W3C//DTD SVG 1.1//EN" "http://www.w3.org/Graphics/SVG/1.1/DTD/svg11.dtd">
<svg version="1.1" id="Layer_1" xmlns="http://www.w3.org/2000/svg" xmlns:xlink="http://www.w3.org/1999/xlink" x="0px" y="0px"
	 width="800px" height="250px" viewBox="0 0 800 250" enable-background="new 0 0 800 250" xml:space="preserve">
<rect width="800" height="250"/>
<g>
	<path fill="#FFFFFF" d="M122.049,132.918c0,13.781-8.67,24.185-23.64,24.185c-14.966,0-23.637-10.404-23.637-24.185
		c0-13.787,8.671-24.194,23.637-24.194C113.383,108.724,122.049,119.131,122.049,132.918z M86.456,132.918
		c0,7.207,4.013,13.962,11.954,13.962c7.941,0,11.956-6.756,11.956-13.962c0-7.207-4.015-13.966-11.956-13.966
		C90.468,118.952,86.456,125.711,86.456,132.918z"/>
	<path fill="#FFFFFF" d="M130.11,109.826h11.131v4.566h0.186c3.287-4.019,8.125-5.666,12.594-5.666
		c10.954,0,15.881,5.566,15.881,15.703v31.578h-11.138v-28.201c0-4.2-1.914-8.312-7.665-8.312c-5.384,0-9.859,3.658-9.859,12.146
		v24.367H130.11V109.826z"/>
	<path fill="#FFFFFF" d="M186.239,102.34h-17.803V91.024h47.833v11.316h-17.804v53.667h-12.226V102.34z"/>
	<path fill="#FFFFFF" d="M217.394,109.826h11.131v6.386h0.187c2.644-5.293,7.754-7.485,14.234-7.485v11.319
		c-7.572,0-14.424,3.56-14.424,13.602v22.36H217.39v-46.182H217.394z"/>
	<path fill="#FFFFFF" d="M258.299,135.564c0.183,6.848,5.93,11.316,11.954,11.316c8.764,0,12.232-5.023,13.33-6.568l9.401,5.479
		c-3.473,5.293-10.135,11.312-22.731,11.312c-14.969,0-23.641-10.404-23.641-24.185c0-13.787,8.672-24.194,23.641-24.194
		c15.423,0,22.182,10.32,22.182,26.837h-34.136V135.564z M280.75,126.985c0-2.464-3.012-9.135-10.497-9.135
		c-6.476,0-10.771,4.2-11.954,9.135H280.75z"/>
	<path fill="#FFFFFF" d="M300.312,109.826h11.132v4.566h0.185c3.285-4.019,8.125-5.666,12.591-5.666
		c10.954,0,15.884,5.566,15.884,15.703v31.578h-11.133v-28.201c0-4.2-1.916-8.312-7.669-8.312c-5.383,0-9.858,3.658-9.858,12.146
		v24.367h-11.132V109.826z"/>
	<path fill="#FFFFFF" d="M381.39,151.535h-0.184c-2.74,3.285-6.296,5.564-12.955,5.564c-11.87,0-20.081-10.857-20.081-24.184
		c0-13.33,8.21-24.194,20.081-24.194c5.469,0,9.765,1.919,13.139,5.024v-22.72h11.137v64.983H381.39V151.535z M359.851,132.918
		c0.086,6.66,2.555,13.962,10.948,13.962c8.399,0,10.863-7.307,10.954-13.962c-0.09-6.668-2.558-13.966-10.954-13.966
		S359.937,126.25,359.851,132.918z"/>
	<path fill="#FFFFFF" d="M402.753,115.04h7.979l10.674,31.464h0.175l10.229-31.464h6.272l10.041,31.464h0.182l11.119-31.464h7.442
		l-15.602,42.854h-6.366l-10.134-31.474h-0.18l-10.4,31.474h-6.543L402.753,115.04z"/>
	<path fill="#FFFFFF" d="M477.203,138.08c0,8.52,4.483,15.148,12.915,15.148c6.452,0,10.399-3.227,12.012-9.588l7.265,0.898
		c-2.781,9.59-10.043,14.432-19.545,14.432c-13.093,0.27-20.536-9.951-20.536-22.143c0-13.898,6.544-22.863,20.441-22.863
		c13.449,0,19.995,9.774,19.995,22.42v1.697h-32.547V138.08z M501.859,132.343c-0.894-6.995-4.841-12.646-12.91-12.646
		c-7.175,0-11.301,6.097-11.746,12.646H501.859z"/>
	<path fill="#FFFFFF" d="M516.145,94.058h7.351v26.354h0.179c3.143-4.303,7.98-6.451,13.719-6.451
		c14.705,0,20.442,11.029,20.442,22.505c0,11.479-5.201,22.5-21.071,22.5c-5.194,0-10.218-2.148-13.177-6.184h0.087h-0.182v5.111
		h-7.35V94.058H516.145z M536.581,120.233c-8.517,0-13.353,7.711-13.353,16.231c0,8.512,3.851,16.225,13.353,16.225
		c9.507,0,13.358-7.713,13.358-16.225C549.945,127.947,546.088,120.233,536.581,120.233z"/>
	<path fill="#FFFFFF" d="M569.785,142.833c0,7.977,6.271,10.395,12.189,10.395c3.41,0,9.595-1.068,9.595-7.354
		c0-10.664-27.978-2.684-27.978-19.452c0-8.692,8.523-12.458,16.143-12.458c5.827,0,18.383,2.951,18.383,13.985l-7.354,0.985
		c0-6.278-5.108-9.235-10.671-9.235c-3.942,0-9.145,1.167-9.145,6.367c0,9.691,28.511,2.781,28.511,19.727
		c0,9.051-9.237,13.178-18.558,13.178c-9.414,0-18.025-4.303-19.013-15.148L569.785,142.833z"/>
	<path fill="#FFFFFF" d="M605.939,115.04h7.35v42.854h-7.35V115.04z"/>
	<path fill="#FFFFFF" d="M617.602,115.04h7.084v-13.362h7.35v13.362h7.98v6.269h-7.98v27.263c0,2.057,0,4.119,2.958,4.119
		c1.612,0,3.05-0.354,4.571-0.893v6.277c-2.421,0.533-4.841,0.891-7.262,0.891c-7.621,0-7.621-3.584-7.621-8.426v-29.232h-7.08
		V115.04L617.602,115.04z"/>
	<path fill="#FFFFFF" d="M651.062,138.08c0,8.52,4.481,15.148,12.91,15.148c6.45,0,10.399-3.227,12.017-9.588l7.263,0.898
		c-2.787,9.59-10.044,14.432-19.551,14.432c-13.088,0.27-20.534-9.951-20.534-22.143c0-13.898,6.55-22.863,20.442-22.863
		c13.446,0,19.994,9.774,19.994,22.42v1.697h-32.541V138.08z M675.717,132.343c-0.896-6.995-4.839-12.646-12.914-12.646
		c-7.172,0-11.297,6.097-11.74,12.646H675.717z"/>
	<path fill="#FFFFFF" d="M695.553,142.833c0,7.977,6.278,10.395,12.188,10.395c3.412,0,9.6-1.068,9.6-7.354
		c0-10.664-27.976-2.684-27.976-19.452c0-8.692,8.517-12.458,16.138-12.458c5.83,0,18.382,2.951,18.382,13.985l-7.351,0.985
		c0-6.278-5.111-9.235-10.668-9.235c-3.95,0-9.149,1.167-9.149,6.367c0,9.691,28.511,2.781,28.511,19.727
		c0,9.051-9.233,13.178-18.558,13.178c-9.415,0-18.02-4.303-19.01-15.148L695.553,142.833z"/>
</g>
</svg>
